<svg width="1197" height="389" viewBox="0 0 1197 389" fill="none" xmlns="http://www.w3.org/2000/svg">
<rect width="1197" height="389" fill="url(#paint0_linear_1_2)"/>
<path d="M564 312V340H620V284H564V312ZM609.125 309.767C610.468 310.083 611.688 310.787 612.634 311.79C613.145 312.336 613.91 313.339 613.975 313.586C613.992 313.659 611.56 315.29 610.083 316.202C610.029 316.238 609.81 316.011 609.572 315.654C608.853 314.606 608.095 314.151 606.938 314.068C605.242 313.958 604.149 314.844 604.157 316.33C604.148 316.693 604.23 317.053 604.394 317.378C604.768 318.153 605.47 318.617 607.638 319.557C611.649 321.279 613.362 322.418 614.428 324.031C615.621 325.836 615.886 328.716 615.084 330.867C614.192 333.191 611.985 334.776 608.886 335.296C607.929 335.469 605.65 335.441 604.619 335.25C602.369 334.85 600.235 333.737 598.923 332.279C598.403 331.714 597.4 330.228 597.465 330.128C597.493 330.091 597.721 329.946 597.976 329.799L600.055 328.595L601.669 327.657L602.007 328.158C602.481 328.877 603.51 329.862 604.131 330.189C605.918 331.138 608.37 331.002 609.582 329.917C610.074 329.507 610.349 328.877 610.312 328.24C610.312 327.593 610.23 327.302 609.892 326.817C609.455 326.198 608.571 325.669 606.045 324.576C603.156 323.326 601.907 322.561 600.778 321.331C600.067 320.521 599.542 319.566 599.238 318.533C599.028 317.74 598.974 315.752 599.138 314.959C599.732 312.161 601.846 310.22 604.88 309.646C605.865 309.455 608.161 309.527 609.127 309.765L609.125 309.767ZM595.983 312.11L596 314.398H588.708V335.116H583.549V314.398H576.268V312.156C576.268 310.906 576.296 309.868 576.331 309.84C576.359 309.804 580.788 309.786 586.166 309.795L595.955 309.823L595.983 312.11Z" fill="white"/>
<path d="M166.632 193H159.352L142.868 168.092V193H135.588V156.652H142.868L159.352 181.612V156.652H166.632V193ZM200.606 177.972C200.606 179.012 200.537 179.948 200.398 180.78H179.338C179.512 182.86 180.24 184.489 181.522 185.668C182.805 186.847 184.382 187.436 186.254 187.436C188.958 187.436 190.882 186.275 192.026 183.952H199.878C199.046 186.725 197.452 189.013 195.094 190.816C192.737 192.584 189.842 193.468 186.41 193.468C183.637 193.468 181.141 192.861 178.922 191.648C176.738 190.4 175.022 188.649 173.774 186.396C172.561 184.143 171.954 181.543 171.954 178.596C171.954 175.615 172.561 172.997 173.774 170.744C174.988 168.491 176.686 166.757 178.87 165.544C181.054 164.331 183.568 163.724 186.41 163.724C189.149 163.724 191.593 164.313 193.742 165.492C195.926 166.671 197.608 168.352 198.786 170.536C200 172.685 200.606 175.164 200.606 177.972ZM193.066 175.892C193.032 174.02 192.356 172.529 191.038 171.42C189.721 170.276 188.109 169.704 186.202 169.704C184.4 169.704 182.874 170.259 181.626 171.368C180.413 172.443 179.668 173.951 179.39 175.892H193.066ZM221.832 193L215.904 184.056L210.652 193H202.852L212.264 178.544L202.748 164.192H210.964L216.84 173.084L222.144 164.192H229.944L220.48 178.544L230.048 193H221.832ZM242.478 170.172V184.108C242.478 185.079 242.703 185.789 243.154 186.24C243.639 186.656 244.437 186.864 245.546 186.864H248.926V193H244.35C238.214 193 235.146 190.019 235.146 184.056V170.172H231.714V164.192H235.146V157.068H242.478V164.192H248.926V170.172H242.478ZM257.386 193.364C256.069 193.364 254.977 192.965 254.11 192.168C253.278 191.336 252.862 190.313 252.862 189.1C252.862 187.887 253.278 186.881 254.11 186.084C254.977 185.252 256.069 184.836 257.386 184.836C258.669 184.836 259.726 185.252 260.558 186.084C261.39 186.881 261.806 187.887 261.806 189.1C261.806 190.313 261.39 191.336 260.558 192.168C259.726 192.965 258.669 193.364 257.386 193.364ZM288.834 156.704V182.184C288.834 185.72 287.811 188.476 285.766 190.452C283.721 192.393 280.982 193.364 277.55 193.364C274.083 193.364 271.275 192.359 269.126 190.348C267.011 188.337 265.954 185.529 265.954 181.924H273.234C273.269 183.484 273.633 184.697 274.326 185.564C275.054 186.431 276.094 186.864 277.446 186.864C278.763 186.864 279.769 186.448 280.462 185.616C281.155 184.784 281.502 183.64 281.502 182.184V156.704H288.834ZM309.858 193.364C307.328 193.364 305.04 192.931 302.994 192.064C300.984 191.197 299.389 189.949 298.21 188.32C297.032 186.691 296.425 184.767 296.39 182.548H304.19C304.294 184.039 304.814 185.217 305.75 186.084C306.721 186.951 308.038 187.384 309.702 187.384C311.401 187.384 312.736 186.985 313.706 186.188C314.677 185.356 315.162 184.281 315.162 182.964C315.162 181.889 314.833 181.005 314.174 180.312C313.516 179.619 312.684 179.081 311.678 178.7C310.708 178.284 309.356 177.833 307.622 177.348C305.265 176.655 303.341 175.979 301.85 175.32C300.394 174.627 299.129 173.604 298.054 172.252C297.014 170.865 296.494 169.028 296.494 166.74C296.494 164.591 297.032 162.719 298.106 161.124C299.181 159.529 300.689 158.316 302.63 157.484C304.572 156.617 306.79 156.184 309.286 156.184C313.03 156.184 316.064 157.103 318.386 158.94C320.744 160.743 322.044 163.273 322.286 166.532H314.278C314.209 165.284 313.672 164.261 312.666 163.464C311.696 162.632 310.396 162.216 308.766 162.216C307.345 162.216 306.201 162.58 305.334 163.308C304.502 164.036 304.086 165.093 304.086 166.48C304.086 167.451 304.398 168.265 305.022 168.924C305.681 169.548 306.478 170.068 307.414 170.484C308.385 170.865 309.737 171.316 311.47 171.836C313.828 172.529 315.752 173.223 317.242 173.916C318.733 174.609 320.016 175.649 321.09 177.036C322.165 178.423 322.702 180.243 322.702 182.496C322.702 184.437 322.2 186.24 321.194 187.904C320.189 189.568 318.716 190.903 316.774 191.908C314.833 192.879 312.528 193.364 309.858 193.364ZM368.6 177.66H358.772V187.748H351.908V177.66H342.08V171.316H351.908V161.228H358.772V171.316H368.6V177.66ZM413.534 156.704V162.58H403.862V193H396.582V162.58H386.91V156.704H413.534ZM446.406 164.192L428.57 206.624H420.822L427.062 192.272L415.518 164.192H423.682L431.118 184.316L438.658 164.192H446.406ZM457.61 168.352C458.546 167.035 459.829 165.943 461.458 165.076C463.122 164.175 465.012 163.724 467.126 163.724C469.588 163.724 471.806 164.331 473.782 165.544C475.793 166.757 477.37 168.491 478.514 170.744C479.693 172.963 480.282 175.545 480.282 178.492C480.282 181.439 479.693 184.056 478.514 186.344C477.37 188.597 475.793 190.348 473.782 191.596C471.806 192.844 469.588 193.468 467.126 193.468C465.012 193.468 463.14 193.035 461.51 192.168C459.916 191.301 458.616 190.209 457.61 188.892V206.728H450.33V164.192H457.61V168.352ZM472.846 178.492C472.846 176.759 472.482 175.268 471.754 174.02C471.061 172.737 470.125 171.767 468.946 171.108C467.802 170.449 466.554 170.12 465.202 170.12C463.885 170.12 462.637 170.467 461.458 171.16C460.314 171.819 459.378 172.789 458.65 174.072C457.957 175.355 457.61 176.863 457.61 178.596C457.61 180.329 457.957 181.837 458.65 183.12C459.378 184.403 460.314 185.391 461.458 186.084C462.637 186.743 463.885 187.072 465.202 187.072C466.554 187.072 467.802 186.725 468.946 186.032C470.125 185.339 471.061 184.351 471.754 183.068C472.482 181.785 472.846 180.26 472.846 178.492ZM512.352 177.972C512.352 179.012 512.283 179.948 512.144 180.78H491.084C491.258 182.86 491.986 184.489 493.268 185.668C494.551 186.847 496.128 187.436 498 187.436C500.704 187.436 502.628 186.275 503.772 183.952H511.624C510.792 186.725 509.198 189.013 506.84 190.816C504.483 192.584 501.588 193.468 498.156 193.468C495.383 193.468 492.887 192.861 490.668 191.648C488.484 190.4 486.768 188.649 485.52 186.396C484.307 184.143 483.7 181.543 483.7 178.596C483.7 175.615 484.307 172.997 485.52 170.744C486.734 168.491 488.432 166.757 490.616 165.544C492.8 164.331 495.314 163.724 498.156 163.724C500.895 163.724 503.339 164.313 505.488 165.492C507.672 166.671 509.354 168.352 510.532 170.536C511.746 172.685 512.352 175.164 512.352 177.972ZM504.812 175.892C504.778 174.02 504.102 172.529 502.784 171.42C501.467 170.276 499.855 169.704 497.948 169.704C496.146 169.704 494.62 170.259 493.372 171.368C492.159 172.443 491.414 173.951 491.136 175.892H504.812ZM530.198 193.364C527.667 193.364 525.379 192.931 523.334 192.064C521.323 191.197 519.729 189.949 518.55 188.32C517.371 186.691 516.765 184.767 516.73 182.548H524.53C524.634 184.039 525.154 185.217 526.09 186.084C527.061 186.951 528.378 187.384 530.042 187.384C531.741 187.384 533.075 186.985 534.046 186.188C535.017 185.356 535.502 184.281 535.502 182.964C535.502 181.889 535.173 181.005 534.514 180.312C533.855 179.619 533.023 179.081 532.018 178.7C531.047 178.284 529.695 177.833 527.962 177.348C525.605 176.655 523.681 175.979 522.19 175.32C520.734 174.627 519.469 173.604 518.394 172.252C517.354 170.865 516.834 169.028 516.834 166.74C516.834 164.591 517.371 162.719 518.446 161.124C519.521 159.529 521.029 158.316 522.97 157.484C524.911 156.617 527.13 156.184 529.626 156.184C533.37 156.184 536.403 157.103 538.726 158.94C541.083 160.743 542.383 163.273 542.626 166.532H534.618C534.549 165.284 534.011 164.261 533.006 163.464C532.035 162.632 530.735 162.216 529.106 162.216C527.685 162.216 526.541 162.58 525.674 163.308C524.842 164.036 524.426 165.093 524.426 166.48C524.426 167.451 524.738 168.265 525.362 168.924C526.021 169.548 526.818 170.068 527.754 170.484C528.725 170.865 530.077 171.316 531.81 171.836C534.167 172.529 536.091 173.223 537.582 173.916C539.073 174.609 540.355 175.649 541.43 177.036C542.505 178.423 543.042 180.243 543.042 182.496C543.042 184.437 542.539 186.24 541.534 187.904C540.529 189.568 539.055 190.903 537.114 191.908C535.173 192.879 532.867 193.364 530.198 193.364ZM547.482 178.596C547.482 175.615 548.088 173.015 549.302 170.796C550.515 168.543 552.196 166.809 554.346 165.596C556.495 164.348 558.956 163.724 561.73 163.724C565.3 163.724 568.247 164.625 570.57 166.428C572.927 168.196 574.504 170.692 575.302 173.916H567.45C567.034 172.668 566.323 171.697 565.318 171.004C564.347 170.276 563.134 169.912 561.678 169.912C559.598 169.912 557.951 170.675 556.738 172.2C555.524 173.691 554.918 175.823 554.918 178.596C554.918 181.335 555.524 183.467 556.738 184.992C557.951 186.483 559.598 187.228 561.678 187.228C564.624 187.228 566.548 185.911 567.45 183.276H575.302C574.504 186.396 572.927 188.875 570.57 190.712C568.212 192.549 565.266 193.468 561.73 193.468C558.956 193.468 556.495 192.861 554.346 191.648C552.196 190.4 550.515 188.667 549.302 186.448C548.088 184.195 547.482 181.577 547.482 178.596ZM587.915 168.664C588.851 167.139 590.064 165.943 591.555 165.076C593.08 164.209 594.814 163.776 596.755 163.776V171.42H594.831C592.543 171.42 590.81 171.957 589.631 173.032C588.487 174.107 587.915 175.979 587.915 178.648V193H580.635V164.192H587.915V168.664ZM605.35 160.76C604.068 160.76 602.993 160.361 602.126 159.564C601.294 158.732 600.878 157.709 600.878 156.496C600.878 155.283 601.294 154.277 602.126 153.48C602.993 152.648 604.068 152.232 605.35 152.232C606.633 152.232 607.69 152.648 608.522 153.48C609.389 154.277 609.822 155.283 609.822 156.496C609.822 157.709 609.389 158.732 608.522 159.564C607.69 160.361 606.633 160.76 605.35 160.76ZM608.938 164.192V193H601.658V164.192H608.938ZM623.411 168.352C624.347 167.035 625.63 165.943 627.259 165.076C628.923 164.175 630.812 163.724 632.927 163.724C635.388 163.724 637.607 164.331 639.583 165.544C641.594 166.757 643.171 168.491 644.315 170.744C645.494 172.963 646.083 175.545 646.083 178.492C646.083 181.439 645.494 184.056 644.315 186.344C643.171 188.597 641.594 190.348 639.583 191.596C637.607 192.844 635.388 193.468 632.927 193.468C630.812 193.468 628.94 193.035 627.311 192.168C625.716 191.301 624.416 190.209 623.411 188.892V206.728H616.131V164.192H623.411V168.352ZM638.647 178.492C638.647 176.759 638.283 175.268 637.555 174.02C636.862 172.737 635.926 171.767 634.747 171.108C633.603 170.449 632.355 170.12 631.003 170.12C629.686 170.12 628.438 170.467 627.259 171.16C626.115 171.819 625.179 172.789 624.451 174.072C623.758 175.355 623.411 176.863 623.411 178.596C623.411 180.329 623.758 181.837 624.451 183.12C625.179 184.403 626.115 185.391 627.259 186.084C628.438 186.743 629.686 187.072 631.003 187.072C632.355 187.072 633.603 186.725 634.747 186.032C635.926 185.339 636.862 184.351 637.555 183.068C638.283 181.785 638.647 180.26 638.647 178.492ZM659.849 170.172V184.108C659.849 185.079 660.074 185.789 660.525 186.24C661.01 186.656 661.808 186.864 662.917 186.864H666.297V193H661.721C655.585 193 652.517 190.019 652.517 184.056V170.172H649.085V164.192H652.517V157.068H659.849V164.192H666.297V170.172H659.849ZM711.12 177.66H701.292V187.748H694.428V177.66H684.6V171.316H694.428V161.228H701.292V171.316H711.12V177.66ZM756.054 156.704V162.58H746.382V193H739.102V162.58H729.43V156.704H756.054ZM759.493 178.492C759.493 175.58 760.065 172.997 761.209 170.744C762.388 168.491 763.965 166.757 765.941 165.544C767.952 164.331 770.188 163.724 772.649 163.724C774.799 163.724 776.671 164.157 778.265 165.024C779.895 165.891 781.195 166.983 782.165 168.3V164.192H789.497V193H782.165V188.788C781.229 190.14 779.929 191.267 778.265 192.168C776.636 193.035 774.747 193.468 772.597 193.468C770.171 193.468 767.952 192.844 765.941 191.596C763.965 190.348 762.388 188.597 761.209 186.344C760.065 184.056 759.493 181.439 759.493 178.492ZM782.165 178.596C782.165 176.828 781.819 175.32 781.125 174.072C780.432 172.789 779.496 171.819 778.317 171.16C777.139 170.467 775.873 170.12 774.521 170.12C773.169 170.12 771.921 170.449 770.777 171.108C769.633 171.767 768.697 172.737 767.969 174.02C767.276 175.268 766.929 176.759 766.929 178.492C766.929 180.225 767.276 181.751 767.969 183.068C768.697 184.351 769.633 185.339 770.777 186.032C771.956 186.725 773.204 187.072 774.521 187.072C775.873 187.072 777.139 186.743 778.317 186.084C779.496 185.391 780.432 184.42 781.125 183.172C781.819 181.889 782.165 180.364 782.165 178.596ZM800.3 160.76C799.017 160.76 797.942 160.361 797.076 159.564C796.244 158.732 795.828 157.709 795.828 156.496C795.828 155.283 796.244 154.277 797.076 153.48C797.942 152.648 799.017 152.232 800.3 152.232C801.582 152.232 802.64 152.648 803.472 153.48C804.338 154.277 804.772 155.283 804.772 156.496C804.772 157.709 804.338 158.732 803.472 159.564C802.64 160.361 801.582 160.76 800.3 160.76ZM803.888 164.192V193H796.608V164.192H803.888ZM818.36 154.52V193H811.08V154.52H818.36ZM865.489 164.192L857.065 193H849.213L843.961 172.876L838.709 193H830.805L822.329 164.192H829.713L834.809 186.136L840.321 164.192H848.017L853.425 186.084L858.521 164.192H865.489ZM873.12 160.76C871.837 160.76 870.763 160.361 869.896 159.564C869.064 158.732 868.648 157.709 868.648 156.496C868.648 155.283 869.064 154.277 869.896 153.48C870.763 152.648 871.837 152.232 873.12 152.232C874.403 152.232 875.46 152.648 876.292 153.48C877.159 154.277 877.592 155.283 877.592 156.496C877.592 157.709 877.159 158.732 876.292 159.564C875.46 160.361 874.403 160.76 873.12 160.76ZM876.708 164.192V193H869.428V164.192H876.708ZM899.865 163.776C903.297 163.776 906.07 164.868 908.185 167.052C910.299 169.201 911.357 172.217 911.357 176.1V193H904.077V177.088C904.077 174.8 903.505 173.049 902.361 171.836C901.217 170.588 899.657 169.964 897.681 169.964C895.67 169.964 894.075 170.588 892.897 171.836C891.753 173.049 891.181 174.8 891.181 177.088V193H883.901V164.192H891.181V167.78C892.151 166.532 893.382 165.561 894.873 164.868C896.398 164.14 898.062 163.776 899.865 163.776ZM916.407 178.492C916.407 175.58 916.979 172.997 918.123 170.744C919.302 168.491 920.897 166.757 922.907 165.544C924.918 164.331 927.154 163.724 929.615 163.724C931.487 163.724 933.273 164.14 934.971 164.972C936.67 165.769 938.022 166.844 939.027 168.196V154.52H946.411V193H939.027V188.736C938.126 190.157 936.861 191.301 935.231 192.168C933.602 193.035 931.713 193.468 929.563 193.468C927.137 193.468 924.918 192.844 922.907 191.596C920.897 190.348 919.302 188.597 918.123 186.344C916.979 184.056 916.407 181.439 916.407 178.492ZM939.079 178.596C939.079 176.828 938.733 175.32 938.039 174.072C937.346 172.789 936.41 171.819 935.231 171.16C934.053 170.467 932.787 170.12 931.435 170.12C930.083 170.12 928.835 170.449 927.691 171.108C926.547 171.767 925.611 172.737 924.883 174.02C924.19 175.268 923.843 176.759 923.843 178.492C923.843 180.225 924.19 181.751 924.883 183.068C925.611 184.351 926.547 185.339 927.691 186.032C928.87 186.725 930.118 187.072 931.435 187.072C932.787 187.072 934.053 186.743 935.231 186.084C936.41 185.391 937.346 184.42 938.039 183.172C938.733 181.889 939.079 180.364 939.079 178.596ZM964.144 174.8C964.144 171.229 964.942 168.04 966.536 165.232C968.166 162.389 970.367 160.188 973.14 158.628C975.948 157.033 979.086 156.236 982.552 156.236C986.608 156.236 990.162 157.276 993.212 159.356C996.263 161.436 998.395 164.313 999.608 167.988H991.236C990.404 166.255 989.226 164.955 987.7 164.088C986.21 163.221 984.476 162.788 982.5 162.788C980.386 162.788 978.496 163.291 976.832 164.296C975.203 165.267 973.92 166.653 972.984 168.456C972.083 170.259 971.632 172.373 971.632 174.8C971.632 177.192 972.083 179.307 972.984 181.144C973.92 182.947 975.203 184.351 976.832 185.356C978.496 186.327 980.386 186.812 982.5 186.812C984.476 186.812 986.21 186.379 987.7 185.512C989.226 184.611 990.404 183.293 991.236 181.56H999.608C998.395 185.269 996.263 188.164 993.212 190.244C990.196 192.289 986.643 193.312 982.552 193.312C979.086 193.312 975.948 192.532 973.14 190.972C970.367 189.377 968.166 187.176 966.536 184.368C964.942 181.56 964.144 178.371 964.144 174.8ZM1018.36 193.364C1015.83 193.364 1013.54 192.931 1011.49 192.064C1009.48 191.197 1007.89 189.949 1006.71 188.32C1005.53 186.691 1004.92 184.767 1004.89 182.548H1012.69C1012.79 184.039 1013.31 185.217 1014.25 186.084C1015.22 186.951 1016.54 187.384 1018.2 187.384C1019.9 187.384 1021.24 186.985 1022.21 186.188C1023.18 185.356 1023.66 184.281 1023.66 182.964C1023.66 181.889 1023.33 181.005 1022.67 180.312C1022.02 179.619 1021.18 179.081 1020.18 178.7C1019.21 178.284 1017.86 177.833 1016.12 177.348C1013.76 176.655 1011.84 175.979 1010.35 175.32C1008.89 174.627 1007.63 173.604 1006.55 172.252C1005.51 170.865 1004.99 169.028 1004.99 166.74C1004.99 164.591 1005.53 162.719 1006.61 161.124C1007.68 159.529 1009.19 158.316 1011.13 157.484C1013.07 156.617 1015.29 156.184 1017.79 156.184C1021.53 156.184 1024.56 157.103 1026.89 158.94C1029.24 160.743 1030.54 163.273 1030.79 166.532H1022.78C1022.71 165.284 1022.17 164.261 1021.17 163.464C1020.2 162.632 1018.9 162.216 1017.27 162.216C1015.84 162.216 1014.7 162.58 1013.83 163.308C1013 164.036 1012.59 165.093 1012.59 166.48C1012.59 167.451 1012.9 168.265 1013.52 168.924C1014.18 169.548 1014.98 170.068 1015.91 170.484C1016.88 170.865 1018.24 171.316 1019.97 171.836C1022.33 172.529 1024.25 173.223 1025.74 173.916C1027.23 174.609 1028.52 175.649 1029.59 177.036C1030.66 178.423 1031.2 180.243 1031.2 182.496C1031.2 184.437 1030.7 186.24 1029.69 187.904C1028.69 189.568 1027.22 190.903 1025.27 191.908C1023.33 192.879 1021.03 193.364 1018.36 193.364ZM1050.05 193.364C1047.52 193.364 1045.23 192.931 1043.18 192.064C1041.17 191.197 1039.58 189.949 1038.4 188.32C1037.22 186.691 1036.61 184.767 1036.58 182.548H1044.38C1044.48 184.039 1045 185.217 1045.94 186.084C1046.91 186.951 1048.23 187.384 1049.89 187.384C1051.59 187.384 1052.92 186.985 1053.89 186.188C1054.86 185.356 1055.35 184.281 1055.35 182.964C1055.35 181.889 1055.02 181.005 1054.36 180.312C1053.7 179.619 1052.87 179.081 1051.87 178.7C1050.9 178.284 1049.54 177.833 1047.81 177.348C1045.45 176.655 1043.53 175.979 1042.04 175.32C1040.58 174.627 1039.32 173.604 1038.24 172.252C1037.2 170.865 1036.68 169.028 1036.68 166.74C1036.68 164.591 1037.22 162.719 1038.29 161.124C1039.37 159.529 1040.88 158.316 1042.82 157.484C1044.76 156.617 1046.98 156.184 1049.47 156.184C1053.22 156.184 1056.25 157.103 1058.57 158.94C1060.93 160.743 1062.23 163.273 1062.47 166.532H1054.47C1054.4 165.284 1053.86 164.261 1052.85 163.464C1051.88 162.632 1050.58 162.216 1048.95 162.216C1047.53 162.216 1046.39 162.58 1045.52 163.308C1044.69 164.036 1044.27 165.093 1044.27 166.48C1044.27 167.451 1044.59 168.265 1045.21 168.924C1045.87 169.548 1046.67 170.068 1047.6 170.484C1048.57 170.865 1049.92 171.316 1051.66 171.836C1054.02 172.529 1055.94 173.223 1057.43 173.916C1058.92 174.609 1060.2 175.649 1061.28 177.036C1062.35 178.423 1062.89 180.243 1062.89 182.496C1062.89 184.437 1062.39 186.24 1061.38 187.904C1060.38 189.568 1058.9 190.903 1056.96 191.908C1055.02 192.879 1052.72 193.364 1050.05 193.364Z" fill="white"/>
<path d="M509.608 117.08L495.592 110.264V106.648L509.608 99.832V103.064L500.04 107.64C499.613 107.832 499.208 108.003 498.824 108.152C498.44 108.28 498.152 108.365 497.96 108.408C498.173 108.451 498.472 108.536 498.856 108.664C499.261 108.792 499.656 108.952 500.04 109.144L509.608 113.752V117.08ZM520.06 119V98.808H513.82V95.608H529.756V98.808H523.516V119H520.06ZM540.975 119.32C539.546 119.32 538.287 119.043 537.199 118.488C536.132 117.912 535.311 117.112 534.735 116.088C534.159 115.064 533.871 113.869 533.871 112.504V107.896C533.871 106.509 534.159 105.315 534.735 104.312C535.311 103.288 536.132 102.499 537.199 101.944C538.287 101.368 539.546 101.08 540.975 101.08C542.426 101.08 543.684 101.368 544.751 101.944C545.818 102.499 546.639 103.288 547.215 104.312C547.791 105.315 548.079 106.509 548.079 107.896V111.032H537.199V112.504C537.199 113.805 537.519 114.797 538.159 115.48C538.82 116.163 539.77 116.504 541.007 116.504C542.01 116.504 542.82 116.333 543.439 115.992C544.058 115.629 544.442 115.107 544.591 114.424H548.015C547.759 115.917 546.991 117.112 545.711 118.008C544.431 118.883 542.852 119.32 540.975 119.32ZM544.751 108.952V107.864C544.751 106.584 544.431 105.592 543.791 104.888C543.151 104.184 542.212 103.832 540.975 103.832C539.759 103.832 538.82 104.184 538.159 104.888C537.519 105.592 537.199 106.595 537.199 107.896V108.696L545.007 108.664L544.751 108.952ZM552.451 119V101.4H555.331V103.64H555.971L555.491 104.312C555.491 103.331 555.757 102.552 556.291 101.976C556.824 101.379 557.539 101.08 558.435 101.08C559.395 101.08 560.131 101.453 560.643 102.2C561.176 102.947 561.443 103.971 561.443 105.272L560.675 103.64H561.891L561.379 104.312C561.379 103.331 561.645 102.552 562.179 101.976C562.733 101.379 563.469 101.08 564.387 101.08C565.475 101.08 566.328 101.496 566.947 102.328C567.565 103.139 567.875 104.227 567.875 105.592V119H564.803V105.688C564.803 105.027 564.653 104.515 564.355 104.152C564.077 103.789 563.672 103.608 563.139 103.608C562.605 103.608 562.189 103.789 561.891 104.152C561.613 104.493 561.475 104.995 561.475 105.656V119H558.883V105.688C558.883 105.005 558.733 104.493 558.435 104.152C558.136 103.789 557.709 103.608 557.155 103.608C556.621 103.608 556.216 103.789 555.939 104.152C555.683 104.493 555.555 104.995 555.555 105.656V119H552.451ZM572.438 124.76V101.4H575.862V104.76H576.598L575.862 105.56C575.862 104.173 576.289 103.085 577.142 102.296C578.017 101.485 579.179 101.08 580.63 101.08C582.401 101.08 583.809 101.677 584.854 102.872C585.921 104.045 586.454 105.656 586.454 107.704V112.664C586.454 114.029 586.209 115.213 585.718 116.216C585.249 117.197 584.577 117.965 583.702 118.52C582.849 119.053 581.825 119.32 580.63 119.32C579.201 119.32 578.049 118.925 577.174 118.136C576.299 117.325 575.862 116.227 575.862 114.84L576.598 115.64H575.798L575.894 119.736V124.76H572.438ZM579.446 116.312C580.577 116.312 581.451 115.992 582.07 115.352C582.71 114.691 583.03 113.741 583.03 112.504V107.896C583.03 106.659 582.71 105.72 582.07 105.08C581.451 104.419 580.577 104.088 579.446 104.088C578.358 104.088 577.494 104.429 576.854 105.112C576.214 105.773 575.894 106.701 575.894 107.896V112.504C575.894 113.699 576.214 114.637 576.854 115.32C577.494 115.981 578.358 116.312 579.446 116.312ZM601.066 119C599.978 119 599.028 118.787 598.218 118.36C597.407 117.912 596.767 117.283 596.298 116.472C595.85 115.661 595.626 114.723 595.626 113.656V98.776H589.866V95.64H599.082V113.656C599.082 114.339 599.274 114.883 599.658 115.288C600.042 115.672 600.564 115.864 601.226 115.864H606.666V119H601.066ZM615.965 119.32C614.13 119.32 612.68 118.851 611.613 117.912C610.568 116.952 610.045 115.651 610.045 114.008C610.045 112.344 610.6 111.043 611.709 110.104C612.84 109.144 614.386 108.664 616.349 108.664H621.245V107.032C621.245 106.072 620.946 105.325 620.349 104.792C619.752 104.259 618.909 103.992 617.821 103.992C616.861 103.992 616.061 104.205 615.421 104.632C614.781 105.037 614.408 105.581 614.301 106.264H610.909C611.101 104.685 611.826 103.427 613.085 102.488C614.365 101.549 615.976 101.08 617.917 101.08C620.008 101.08 621.661 101.613 622.877 102.68C624.093 103.725 624.701 105.155 624.701 106.968V119H621.341V115.768H620.765L621.341 115.128C621.341 116.408 620.85 117.432 619.869 118.2C618.888 118.947 617.586 119.32 615.965 119.32ZM616.989 116.664C618.226 116.664 619.24 116.355 620.029 115.736C620.84 115.096 621.245 114.285 621.245 113.304V111H616.413C615.517 111 614.802 111.245 614.269 111.736C613.757 112.227 613.501 112.899 613.501 113.752C613.501 114.648 613.81 115.363 614.429 115.896C615.048 116.408 615.901 116.664 616.989 116.664ZM638.833 119C637.233 119 635.985 118.563 635.089 117.688C634.193 116.813 633.745 115.597 633.745 114.04V104.536H628.881V101.4H633.745V96.44H637.201V101.4H644.081V104.536H637.201V114.04C637.201 115.256 637.787 115.864 638.961 115.864H643.76V119H638.833ZM656.1 119.32C654.671 119.32 653.412 119.043 652.324 118.488C651.257 117.912 650.436 117.112 649.86 116.088C649.284 115.064 648.996 113.869 648.996 112.504V107.896C648.996 106.509 649.284 105.315 649.86 104.312C650.436 103.288 651.257 102.499 652.324 101.944C653.412 101.368 654.671 101.08 656.1 101.08C657.551 101.08 658.809 101.368 659.876 101.944C660.943 102.499 661.764 103.288 662.34 104.312C662.916 105.315 663.204 106.509 663.204 107.896V111.032H652.324V112.504C652.324 113.805 652.644 114.797 653.284 115.48C653.945 116.163 654.895 116.504 656.132 116.504C657.135 116.504 657.945 116.333 658.564 115.992C659.183 115.629 659.567 115.107 659.716 114.424H663.14C662.884 115.917 662.116 117.112 660.836 118.008C659.556 118.883 657.977 119.32 656.1 119.32ZM659.876 108.952V107.864C659.876 106.584 659.556 105.592 658.916 104.888C658.276 104.184 657.337 103.832 656.1 103.832C654.884 103.832 653.945 104.184 653.284 104.888C652.644 105.592 652.324 106.595 652.324 107.896V108.696L660.132 108.664L659.876 108.952ZM669.003 122.52L680.267 92.44H683.883L681.803 98.008L700.043 106.648V110.264L686.027 117.08V113.752L695.595 109.208C696.022 109.016 696.438 108.867 696.843 108.76C697.27 108.632 697.59 108.547 697.803 108.504C697.568 108.461 697.238 108.387 696.811 108.28C696.406 108.152 696 107.992 695.595 107.8L680.747 100.76L672.619 122.52H669.003Z" fill="#E9E9E9"/>
<path d="M490.166 284.015C490.046 284.026 489.663 284.064 489.318 284.092C481.364 284.809 473.914 289.1 469.195 295.695C466.567 299.362 464.887 303.522 464.252 307.928C464.027 309.466 464 309.92 464 312.005C464 314.091 464.027 314.545 464.252 316.083C465.774 326.597 473.257 335.431 483.406 338.704C485.223 339.29 487.139 339.689 489.318 339.93C490.166 340.023 493.834 340.023 494.682 339.93C498.443 339.514 501.629 338.584 504.771 336.98C505.253 336.734 505.346 336.668 505.28 336.613C505.236 336.581 503.184 333.828 500.72 330.5L496.242 324.452L490.632 316.149C487.544 311.584 485.004 307.851 484.982 307.851C484.96 307.846 484.939 311.535 484.928 316.039C484.911 323.926 484.906 324.244 484.807 324.43C484.665 324.698 484.555 324.808 484.325 324.928C484.15 325.015 483.997 325.032 483.17 325.032H482.223L481.972 324.873C481.816 324.775 481.689 324.637 481.605 324.474L481.49 324.227L481.501 313.253L481.517 302.274L481.687 302.06C481.774 301.946 481.96 301.798 482.092 301.727C482.316 301.617 482.404 301.606 483.351 301.606C484.468 301.606 484.654 301.65 484.944 301.967C485.026 302.055 488.064 306.631 491.699 312.142C495.334 317.654 500.304 325.18 502.746 328.874L507.18 335.59L507.404 335.442C509.391 334.15 511.493 332.311 513.157 330.396C516.699 326.329 518.982 321.37 519.748 316.083C519.973 314.545 520 314.091 520 312.006C520 309.92 519.973 309.466 519.748 307.928C518.226 297.414 510.743 288.58 500.594 285.307C498.804 284.727 496.899 284.327 494.764 284.086C494.239 284.031 490.621 283.971 490.166 284.015V284.015ZM501.629 300.949C501.892 301.081 502.105 301.333 502.182 301.595C502.225 301.738 502.236 304.781 502.225 311.639L502.209 321.48L500.474 318.82L498.733 316.16V309.006C498.733 304.381 498.755 301.781 498.788 301.656C498.875 301.349 499.067 301.108 499.33 300.966C499.554 300.851 499.636 300.84 500.496 300.84C501.306 300.84 501.448 300.851 501.629 300.949Z" fill="white"/>
<path d="M699 291C689.71 291 683.903 295.655 681.58 304.964C685.064 300.309 689.129 298.564 693.774 299.727C696.424 300.391 698.319 302.318 700.416 304.45C703.832 307.925 707.785 311.945 716.42 311.945C725.71 311.945 731.517 307.291 733.839 297.982C730.355 302.636 726.291 304.382 721.646 303.218C718.995 302.554 717.101 300.628 715.004 298.495C711.588 295.021 707.635 291 699 291ZM681.58 311.945C672.29 311.945 666.483 316.6 664.161 325.909C667.645 321.254 671.709 319.509 676.354 320.673C679.005 321.337 680.899 323.263 682.996 325.396C686.412 328.87 690.365 332.891 699 332.891C708.29 332.891 714.097 328.236 716.42 318.927C712.936 323.582 708.871 325.327 704.226 324.164C701.576 323.5 699.681 321.573 697.584 319.441C694.168 315.966 690.215 311.945 681.58 311.945Z" fill="white"/>
<defs>
<linearGradient id="paint0_linear_1_2" x1="23.5" y1="381" x2="1300.5" y2="-9.00002" gradientUnits="userSpaceOnUse">
<stop stop-color="#2978D4"/>
<stop offset="1" stop-color="#7CDAF8"/>
</linearGradient>
</defs>
</svg>
